# xmcd
#
# Track frame offsets: 
#        225
#        13580
#        25364
#        35435
#        48461
#        59957
#        75638
#        86168
#        105254
#        118509
#        134595
#        146151
#        159625
#        174518
#        190514
#        199610
#        211227
#        222678
#        234879
#        246428
#
# Disc length: 3405 seconds
#
# Revision: 0
# Processed by: cddbd v1.5.2PL0 Copyright (c) Steve Scherf et al.
# Submitted via: ExactAudioCopy v1.0b3
#
DISCID=230d4a14
DTITLE=Various Artist - The Ultimate Country Cowboy Collection: 40 Legendary 
DTITLE=Songs Of The Wild West [CD2)
DYEAR=1900
DGENRE=Country
TTITLE0=Vaughn Monroe - Riders In The Sky
TTITLE1=Tex Ritter - Gunsmoke
TTITLE2=Frankie Laine - 3:10 to Yuma
TTITLE3=Elvis Presley - Lonesome Cowboy
TTITLE4=Al Martino - The Man From Laramie
TTITLE5=Sons Of The Pioneers - Blue Shadows On The Trail
TTITLE6=Gene Autry - Take Me Back To My Boots and Saddle
TTITLE7=Frankie Lane - Gunfight At The OK Corral
TTITLE8=Tex Ritter - Singin' On The Trail
TTITLE9=Patsy Montana - I Want To Be A Cowboy's Sweetheart
TTITLE10=Gene Autry - I've Got Spurs That Jingle Jangle Jingle
TTITLE11=Frankie Lane - Champion The Wonderhorse
TTITLE12=Roy Rogers - A Four Legged Friend
TTITLE13=Rex Allen - A Cowboy's Story
TTITLE14=Eddy Arnold - Cattle Call
TTITLE15=Frankie Laine - Mule Train
TTITLE16=Bill Hayes - The Ballad Of Davey Crockett
TTITLE17=Slim Whitman - I'm Casting My Lasso Toward The Sky
TTITLE18=Roy Rogers - The Yellow Rose Of Texas
TTITLE19=Sons Of The Pioneers - The Last Round Up
EXTD=
EXTT0=
EXTT1=
EXTT2=
EXTT3=
EXTT4=
EXTT5=
EXTT6=
EXTT7=
EXTT8=
EXTT9=
EXTT10=
EXTT11=
EXTT12=
EXTT13=
EXTT14=
EXTT15=
EXTT16=
EXTT17=
EXTT18=
EXTT19=
PLAYORDER=
